# WaveFront *.obj file (generated by CINEMA 4D)

v 0 -1 0
v 0 1 0
v 0.5 -0.86602538824081 0
v 0.43301269412041 -0.86602538824081 -0.25
v 0.25 -0.86602538824081 -0.43301269412041
v 0 -0.86602538824081 -0.5
v -0.25 -0.86602538824081 -0.43301269412041
v -0.43301269412041 -0.86602538824081 -0.25
v -0.5 -0.86602538824081 -0
v -0.43301269412041 -0.86602538824081 0.25
v -0.25 -0.86602538824081 0.43301269412041
v -0 -0.86602538824081 0.5
v 0.25 -0.86602538824081 0.43301269412041
v 0.43301269412041 -0.86602538824081 0.25
v 0.86602538824081 -0.5 0
v 0.75 -0.5 -0.43301269412041
v 0.43301269412041 -0.5 -0.75
v 0 -0.5 -0.86602538824081
v -0.43301269412041 -0.5 -0.75
v -0.75 -0.5 -0.43301269412041
v -0.86602538824081 -0.5 -0
v -0.75 -0.5 0.43301269412041
v -0.43301269412041 -0.5 0.75
v -0 -0.5 0.86602538824081
v 0.43301269412041 -0.5 0.75
v 0.75 -0.5 0.43301269412041
v 1 0 0
v 0.86602538824081 0 -0.5
v 0.5 0 -0.86602538824081
v 0 0 -1
v -0.5 0 -0.86602538824081
v -0.86602538824081 0 -0.5
v -1 0 -0
v -0.86602538824081 0 0.5
v -0.5 0 0.86602538824081
v -0 0 1
v 0.5 0 0.86602538824081
v 0.86602538824081 0 0.5
v 0.86602538824081 0.5 0
v 0.75 0.5 -0.43301269412041
v 0.43301269412041 0.5 -0.75
v 0 0.5 -0.86602538824081
v -0.43301269412041 0.5 -0.75
v -0.75 0.5 -0.43301269412041
v -0.86602538824081 0.5 -0
v -0.75 0.5 0.43301269412041
v -0.43301269412041 0.5 0.75
v -0 0.5 0.86602538824081
v 0.43301269412041 0.5 0.75
v 0.75 0.5 0.43301269412041
v 0.5 0.86602538824081 0
v 0.43301269412041 0.86602538824081 -0.25
v 0.25 0.86602538824081 -0.43301269412041
v 0 0.86602538824081 -0.5
v -0.25 0.86602538824081 -0.43301269412041
v -0.43301269412041 0.86602538824081 -0.25
v -0.5 0.86602538824081 -0
v -0.43301269412041 0.86602538824081 0.25
v -0.25 0.86602538824081 0.43301269412041
v -0 0.86602538824081 0.5
v 0.25 0.86602538824081 0.43301269412041
v 0.43301269412041 0.86602538824081 0.25
# 62 vertices

vn 0.49823132157326 -0.86704415082932 0.00000000584311
vn 0.86503332853317 -0.50171446800232 0.00000000395433
vn 0.74914085865021 -0.50171440839767 -0.43251666426659
vn 0.43148100376129 -0.86704415082932 -0.24911564588547
vn 0.43251666426659 -0.50171440839767 -0.74914079904556
vn 0.24911566078663 -0.86704415082932 -0.43148100376129
vn 0.00000000790866 -0.50171440839767 -0.86503332853317
vn 0.00000000389541 -0.86704415082932 -0.49823132157326
vn -0.43251666426659 -0.50171440839767 -0.74914085865021
vn -0.24911564588547 -0.86704415082932 -0.43148100376129
vn -0.74914079904556 -0.50171440839767 -0.43251666426659
vn -0.43148100376129 -0.86704415082932 -0.24911566078663
vn -0.86503332853317 -0.50171440839767 -0.00000000790866
vn -0.49823132157326 -0.86704415082932 -0.00000000389541
vn -0.74914085865021 -0.50171440839767 0.43251666426659
vn -0.43148100376129 -0.86704415082932 0.24911564588547
vn -0.43251666426659 -0.50171440839767 0.74914079904556
vn -0.24911566078663 -0.86704415082932 0.43148100376129
vn -0.00000000790866 -0.50171440839767 0.86503332853317
vn -0.00000000389541 -0.86704415082932 0.49823132157326
vn 0.43251666426659 -0.50171440839767 0.74914085865021
vn 0.24911564588547 -0.86704415082932 0.43148100376129
vn 0.74914079904556 -0.50171440839767 0.43251666426659
vn 0.43148100376129 -0.86704415082932 0.24911566078663
vn 1 0 0
vn 0.86602538824081 0 -0.49999997019768
vn 0.5 0 -0.86602538824081
vn 0 0 -1
vn -0.49999997019768 0 -0.86602538824081
vn -0.86602538824081 0 -0.5
vn -1 0 0
vn -0.86602538824081 0 0.49999997019768
vn -0.5 0 0.86602538824081
vn 0 0 1
vn 0.49999997019768 0 0.86602538824081
vn 0.86602538824081 0 0.5
vn 0.86503332853317 0.50171440839767 0
vn 0.74914085865021 0.50171440839767 -0.43251666426659
vn 0.43251666426659 0.50171440839767 -0.74914079904556
vn 0.00000000395433 0.50171440839767 -0.86503332853317
vn -0.43251666426659 0.50171440839767 -0.74914085865021
vn -0.74914079904556 0.50171440839767 -0.43251666426659
vn -0.86503332853317 0.50171440839767 -0.00000000395433
vn -0.74914085865021 0.50171440839767 0.43251666426659
vn -0.43251666426659 0.50171440839767 0.74914079904556
vn -0.00000000395433 0.50171440839767 0.86503332853317
vn 0.43251666426659 0.50171440839767 0.74914085865021
vn 0.74914079904556 0.50171440839767 0.43251666426659
vn 0.49823132157326 0.86704415082932 0
vn 0.43148097395897 0.86704415082932 -0.24911564588547
vn 0.24911564588547 0.86704415082932 -0.43148097395897
vn 0.0000000019477 0.86704415082932 -0.49823132157326
vn -0.24911564588547 0.86704415082932 -0.43148097395897
vn -0.43148097395897 0.86704415082932 -0.24911564588547
vn -0.49823132157326 0.86704415082932 -0.0000000019477
vn -0.43148097395897 0.86704415082932 0.24911564588547
vn -0.24911564588547 0.86704415082932 0.43148097395897
vn -0.0000000019477 0.86704415082932 0.49823132157326
vn 0.24911564588547 0.86704415082932 0.43148097395897
vn 0.43148097395897 0.86704415082932 0.24911564588547
vn 0 -1 0
vn 0 0 0
vn -0.00000000257731 1 -0.00000000193298
# 63 normals

o Sphere
usemtl default
f 4//4 16//3 15//2 3//1
f 5//6 17//5 16//3 4//4
f 6//8 18//7 17//5 5//6
f 7//10 19//9 18//7 6//8
f 8//12 20//11 19//9 7//10
f 9//14 21//13 20//11 8//12
f 10//16 22//15 21//13 9//14
f 11//18 23//17 22//15 10//16
f 12//20 24//19 23//17 11//18
f 13//22 25//21 24//19 12//20
f 14//24 26//23 25//21 13//22
f 3//1 15//2 26//23 14//24
f 16//3 28//26 27//25 15//2
f 17//5 29//27 28//26 16//3
f 18//7 30//28 29//27 17//5
f 19//9 31//29 30//28 18//7
f 20//11 32//30 31//29 19//9
f 21//13 33//31 32//30 20//11
f 22//15 34//32 33//31 21//13
f 23//17 35//33 34//32 22//15
f 24//19 36//34 35//33 23//17
f 25//21 37//35 36//34 24//19
f 26//23 38//36 37//35 25//21
f 15//2 27//25 38//36 26//23
f 28//26 40//38 39//37 27//25
f 29//27 41//39 40//38 28//26
f 30//28 42//40 41//39 29//27
f 31//29 43//41 42//40 30//28
f 32//30 44//42 43//41 31//29
f 33//31 45//43 44//42 32//30
f 34//32 46//44 45//43 33//31
f 35//33 47//45 46//44 34//32
f 36//34 48//46 47//45 35//33
f 37//35 49//47 48//46 36//34
f 38//36 50//48 49//47 37//35
f 27//25 39//37 50//48 38//36
f 40//38 52//50 51//49 39//37
f 41//39 53//51 52//50 40//38
f 42//40 54//52 53//51 41//39
f 43//41 55//53 54//52 42//40
f 44//42 56//54 55//53 43//41
f 45//43 57//55 56//54 44//42
f 46//44 58//56 57//55 45//43
f 47//45 59//57 58//56 46//44
f 48//46 60//58 59//57 47//45
f 49//47 61//59 60//58 48//46
f 50//48 62//60 61//59 49//47
f 39//37 51//49 62//60 50//48
f 4//4 3//1 1//61
f 2//63 51//49 52//50
f 5//6 4//4 1//61
f 2//63 52//50 53//51
f 6//8 5//6 1//61
f 2//63 53//51 54//52
f 7//10 6//8 1//61
f 2//63 54//52 55//53
f 8//12 7//10 1//61
f 2//63 55//53 56//54
f 9//14 8//12 1//61
f 2//63 56//54 57//55
f 10//16 9//14 1//61
f 2//63 57//55 58//56
f 11//18 10//16 1//61
f 2//63 58//56 59//57
f 12//20 11//18 1//61
f 2//63 59//57 60//58
f 13//22 12//20 1//61
f 2//63 60//58 61//59
f 14//24 13//22 1//61
f 2//63 61//59 62//60
f 3//1 14//24 1//61
f 2//63 62//60 51//49

